<?xml version="1.0" encoding="UTF-8"?>
<svg id="Capa_2" data-name="Capa 2" xmlns="http://www.w3.org/2000/svg" viewBox="0 0 1599.53 108.4">
  <g id="Capa_1-2" data-name="Capa 1">
    <g>
      <g>
        <polygon points="226.5 2.77 285 61.77 285 2.77 317 2.77 317 105.77 286.5 105.77 227.01 44.77 227 105.77 195 105.77 194 2.77 226.5 2.77"/>
        <polygon points="87 2.77 143.49 61.78 144 2.77 176 2.77 176 105.77 145.5 105.77 85 44.77 85 105.77 53 105.77 53 2.77 87 2.77"/>
        <path d="M608.99,52.75l-.62-2.07c-16.67-8.17-15.54-32.96-.71-42.74,15.29-10.08,61.76-9.86,78.32-2.65,19.89,8.65,21.93,35.39,3.04,45.98,21.47,7.28,23.25,38.22,4.29,49.31s-79.83,11.75-94.74-4.87c-11.56-12.88-7.47-37.87,10.43-42.96ZM637.74,23.01c-9.65,1.63-12.34,13.27-4.48,16.99,5.9,2.79,33.31,3.57,35.52-3.94.35-5.43,1.83-9.18-3.79-11.79-4.64-2.16-21.87-2.17-27.26-1.26ZM642.8,63.07c-7.84.74-17.71,2.05-16.41,12.72,1.41,11.55,20.18,10.59,29.09,9.97,10.06-.7,19.28-2.49,16.3-15.28-2.17-9.31-21.6-8.11-28.98-7.41Z"/>
        <path d="M394.83.02c30.47-.4,62.88,6.33,66.15,42.28,5.33,58.73-27.89,69.09-79.47,65.47-41.51-2.92-52.54-25.25-49.5-64.47C334.81,7.37,363.77.42,394.83.02ZM422.64,32.14c-8.48-8.52-40.53-8.75-50.14-2.37-12.32,8.19-11.59,41.16.17,48.84,8.5,5.55,39.67,6.16,47.84.17,10.04-7.35,10.46-38.27,2.13-46.65Z"/>
        <polygon points="494 2.77 526.49 72.78 559 2.77 593 2.77 543.51 104.79 509.46 105.85 458 2.77 494 2.77"/>
        <rect y="2.77" width="34" height="103"/>
      </g>
      <g>
        <path d="M752.73,54.49v-.29c0-28.32,21.31-51.77,50.63-51.77,18.16,0,29.18,6.29,39.04,15.88l-7.72,8.29c-8.58-8.01-17.73-13.73-31.46-13.73-22.17,0-38.76,18.02-38.76,41.05v.29c0,23.17,16.59,41.33,38.76,41.33,13.73,0,22.74-5.29,32.32-14.44l7.44,7.29c-10.3,10.58-22.02,17.59-40.05,17.59-28.89,0-50.2-22.74-50.2-51.49Z"/>
        <path d="M863.28,4.14h43.05c12.44,0,22.17,3.72,28.46,10.01,5.01,5,7.72,11.73,7.72,19.74v.29c0,16.59-11.44,26.46-27.17,29.18l30.75,40.9h-13.87l-29.03-38.9h-28.6v38.9h-11.3V4.14ZM905.33,55.2c14.87,0,25.74-7.72,25.74-20.6v-.29c0-12.44-9.44-19.74-25.6-19.74h-30.89v40.62h30.75Z"/>
        <path d="M966.68,4.14h72.37v10.3h-61.07v34.18h54.63v10.3h-54.63v35.04h61.79v10.3h-73.08V4.14Z"/>
        <path d="M1099.54,3.43h10.58l45.62,100.83h-12.16l-11.73-26.46h-54.49l-11.87,26.46h-11.58l45.62-100.83ZM1127.43,67.65l-22.74-51.06-22.88,51.06h45.62Z"/>
        <path d="M1189.22,14.58h-33.75V4.14h78.8v10.44h-33.75v89.67h-11.3V14.58Z"/>
        <path d="M1255.86,4.14h11.3v100.11h-11.3V4.14Z"/>
        <path d="M1292.04,54.49v-.29c0-27.6,20.74-51.77,51.2-51.77s50.92,23.88,50.92,51.49v.29c0,27.6-20.74,51.77-51.2,51.77s-50.92-23.88-50.92-51.49ZM1382.43,54.49v-.29c0-22.74-16.59-41.33-39.47-41.33s-39.19,18.31-39.19,41.05v.29c0,22.74,16.59,41.33,39.47,41.33s39.19-18.31,39.19-41.05Z"/>
        <path d="M1418.04,4.14h10.58l63.07,80.23V4.14h11.01v100.11h-9.01l-64.65-82.09v82.09h-11.01V4.14Z"/>
        <path d="M1524.45,89.67l7.01-8.29c10.44,9.58,20.45,14.16,34.33,14.16s22.31-7.15,22.31-17.02v-.29c0-9.3-5.01-14.45-26.03-19.02-23.03-5.01-33.61-12.44-33.61-28.89v-.29c0-15.59,13.87-27.32,32.9-27.32,14.73,0,24.89,4.15,35.18,12.3l-6.58,8.72c-9.3-7.58-18.59-10.87-28.89-10.87-13.16,0-21.31,7.01-21.31,16.16v.29c0,9.44,5.01,14.87,27.17,19.45,22.31,5.01,32.61,13.01,32.61,28.32v.29c0,17.16-14.3,28.32-34.18,28.32-16.02,0-28.89-5.15-40.9-16.02Z"/>
      </g>
    </g>
  </g>
</svg>